<svg width="400" height="400" viewBox="0 0 400 400" xmlns="http://www.w3.org/2000/svg">
  <!-- Background -->
  <rect width="400" height="400" fill="#2d3748"/>
  
  <!-- Charcoal pieces -->
  <rect x="50" y="120" width="80" height="20" rx="10" fill="#1a202c" stroke="#4a5568" stroke-width="2"/>
  <rect x="40" y="150" width="90" height="22" rx="11" fill="#2d3748" stroke="#4a5568" stroke-width="2"/>
  <rect x="60" y="180" width="75" height="18" rx="9" fill="#1a202c" stroke="#4a5568" stroke-width="2"/>
  <rect x="45" y="210" width="85" height="24" rx="12" fill="#2d3748" stroke="#4a5568" stroke-width="2"/>
  
  <rect x="180" y="110" width="85" height="22" rx="11" fill="#1a202c" stroke="#4a5568" stroke-width="2"/>
  <rect x="170" y="140" width="95" height="20" rx="10" fill="#2d3748" stroke="#4a5568" stroke-width="2"/>
  <rect x="185" y="170" width="80" height="24" rx="12" fill="#1a202c" stroke="#4a5568" stroke-width="2"/>
  <rect x="175" y="200" width="90" height="18" rx="9" fill="#2d3748" stroke="#4a5568" stroke-width="2"/>
  <rect x="190" y="230" width="75" height="22" rx="11" fill="#1a202c" stroke="#4a5568" stroke-width="2"/>
  
  <rect x="310" y="125" width="70" height="20" rx="10" fill="#1a202c" stroke="#4a5568" stroke-width="2"/>
  <rect x="305" y="155" width="80" height="18" rx="9" fill="#2d3748" stroke="#4a5568" stroke-width="2"/>
  <rect x="315" y="185" width="65" height="24" rx="12" fill="#1a202c" stroke="#4a5568" stroke-width="2"/>
  <rect x="320" y="215" width="75" height="20" rx="10" fill="#2d3748" stroke="#4a5568" stroke-width="2"/>
  
  <!-- Japanese text -->
  <text x="200" y="320" font-family="Arial, sans-serif" font-size="28" font-weight="300" fill="white" text-anchor="middle">備長炭</text>
  <text x="200" y="350" font-family="Arial, sans-serif" font-size="16" font-weight="300" fill="#a0aec0" text-anchor="middle">Binchotan Charcoal</text>
</svg>